<svg xmlns="http://www.w3.org/2000/svg" width="273.3333" height="181.3333" version="1" viewBox="0 0 205.000000 136.000000">
  <path d="M8.2 5.2C7.1 6.5 5.6 8.8 5 10.4c-1.8 4.8-3.2 27.2-2.8 46.2.3 15.9.6 18.4 2.5 22.6 2.5 5.5 6.7 8.4 13.2 9.4 8.5 1.3 21.6-4.3 20.9-8.9-.4-3-4-3.4-7.5-.8-9.2 6.5-22.3.7-22.3-10V65h9.3c11.1 0 16.2-1.3 18.3-4.5 2.2-3.3 3-17.3 1.5-26.1-1.6-9.4-3.6-15.2-7.1-20.8C25.1 4.4 13.2 0 8.2 5.2zm15 8.5c4.5 4.8 6.4 8.5 8.3 16.5 1.9 8.2 2 22.8.1 25.3-1.2 1.7-3 2-12.6 2.3l-11.3.4.6-18.8c.5-17.8 1.5-25.2 3.9-28.2 2.1-2.6 7.2-1.4 11 2.5zM54.5 44.9c-9.8 4.5-14 15.2-9.6 24.6 2.5 5.4 6 8.4 12.1 10.5l5 1.7-5.8 1.2c-13 2.9-19.3 10-16.7 18.7 3.6 12 22 25.4 34.8 25.4 9.1 0 14.6-3.3 21.4-12.9.2-.3 2.2 1.4 4.6 3.6 9.2 8.9 22.4 15.1 29.9 13.9 18.2-2.9 26-22.6 14.9-37.5-2.9-3.9-11.1-8.1-15.8-8.1-5.2 0-4.5-1.4 1.8-3.4 6.6-2.1 11.9-7 11.9-11.2 0-9.6-18-24.4-29.8-24.4-8.2 0-16.1 6.1-18.3 14.2-2.8 10.7 4.5 21 16.8 23.6l3.8.9-5.3 1.1c-5.4 1.2-12.6 4.4-13.7 6.1-.3.5-2.7-1.1-5.3-3.7-3-3.1-6.3-5.2-9.2-6.1-2.5-.7-5.2-1.6-6-1.8-.9-.3.2-1 2.7-1.8 9.4-2.8 14.3-8.3 12.8-14.2-1.6-6.6-9.9-14.6-20-19.4-6.9-3.3-11.4-3.6-17-1zm18.8 7.4c6.6 4.3 12.6 10.4 13.4 13.6.8 3.1-3.8 7.5-9.4 9-6.6 1.9-18.3 1.4-22.1-.9-7-4.3-9.2-12.8-4.9-19.1 5.1-7.7 13.6-8.6 23-2.6zm48.8 2.2c6.3 3.2 14.5 11.1 15.4 14.8.6 2.2.2 3.4-1.5 5.2-3.4 3.6-8.4 4.9-18.5 5-10.5 0-13.1-1.3-16.6-8.3-2.9-5.8-2-10.4 3.1-15.4 3.3-3.3 4.4-3.8 8.4-3.8 3 0 6.4.9 9.7 2.5zM82 89.2c8.7 4.4 12 14.1 7.8 22.6-4.2 8.5-12.4 11.9-21.3 8.7-9.9-3.4-22.4-14.3-24-20.7-1.8-7.2 8.7-12.5 25-12.7 6.5-.1 8.9.3 12.5 2.1zm54.9 5.1c9.1 6 10.6 18.3 3.3 26.1-8.6 9.2-22.1 6.6-35.8-6.9-5.7-5.6-6.4-6.7-6.4-10.2 0-8.2 10.2-12.6 27.3-11.8 6.3.3 8.6.8 11.6 2.8zM165.7 47.7c-.4.3-.7 5.2-.7 10.7-.1 19.9-2.6 28.6-8.1 28.6-3.1 0-3.9-3.3-5-20.2-1.1-15.9-1.8-18.8-4.4-18.8-2.1 0-2.3 2-1.3 17.5 1.1 16.8 2 21.7 4.9 24.6 2.2 2.2 7.9 2.6 10.8.7 1.5-.9 2.2-.8 3.6.6 1.3 1.3 2 1.4 3.1.5 1.9-1.5 2.1-41.8.2-43.7-1.4-1.4-2.2-1.5-3.1-.5zM177.9 47.7c-1.3.3-1.7 3.1-2.2 18.5-.9 24.6-.8 38 .2 39.7 2 3.1 3.9.3 4.6-6.8l.7-7 5-1.1c2.8-.5 6.3-1.9 7.8-3 5.9-4.2 9.5-17.8 7.1-26.8-2.6-9.6-13.7-16.1-23.2-13.5zm14 8.8c3.9 3.3 5.5 8.4 4.8 15.2-.9 8.2-4.5 12.6-12 14.3l-3.4.7-.7-11.1c-.3-6.1-.6-13.5-.6-16.4V54h4.4c3.3 0 5.2.7 7.5 2.5z" fill="rgba(40, 57, 72, 0.8)"/>
</svg>
