<svg xmlns="http://www.w3.org/2000/svg" width="1999" height="2500" viewBox="39.39 1.172 324.975 406.495"><title>Purple Awareness Ribbon</title><title>Layer 1</title><g fill="#f69" stroke="#fff" stroke-width="2"><path d="M151.036 14.728c25.248-10.863 49.06-12.88 83.902-2.032 4.07 4.166-3.577 48.01-3.577 48.01-30.695-14.183-48.262-17.127-78.958 3.31 0 0-12.595-39.275-1.366-49.288z"/><path d="M148.884 15.616c15.83-18.318 83.555-16.483 100.39-3.11s27.662 100.14-4.28 73.444c-31.942-26.695-57.746-26.2-94.475 5.068 0 0-17.465-57.083-1.636-75.402z"/><path d="M253.848 21.385s-4.317-35.72 22.636 63.323C303.44 183.752 139.148 398.06 122.43 398.06l-81.176-33.15C222.174 204.117 258.487 48.53 253.848 21.385z"/><path d="M144.968 29.993s4.907-35.72-25.73 63.323c-30.634 99.044 156.095 313.35 175.095 313.35l68.308-56.147C200.203 251.724 139.697 57.136 144.97 29.992z"/></g></svg>
