<svg xmlns="http://www.w3.org/2000/svg" width="800" height="800">
  <path fill="#164FCE" d="M24.807 153.839H256.3v196.838H24.807z"/>
  <path fill="#164FCE" d="M25.807 154.839H255.3v194.838H25.807zM24.807 449.322H256.3v196.839H24.807z"/>
  <path fill="#164FCE" d="M25.807 450.322H255.3v194.839H25.807zM354.945 153.839h420.248v196.838H354.945z"/>
  <path fill="#164FCE" d="M355.945 154.839h418.248v194.838H355.945zM354.945 646.161V449.322h277.313c6.563 0 11.903-5.34 11.903-11.903v-1h27.807v1c0 6.563 5.34 11.903 11.903 11.903h91.322v196.839H354.945z"/>
  <path fill="#164FCE" d="M683.871 450.322c-7.128 0-12.903-5.777-12.903-12.903h-25.807c0 7.126-5.775 12.903-12.903 12.903H355.945v194.839h418.248V450.322h-90.322z"/>
  <path fill="#FFE000" d="M280.106 646.161V437.419c0-6.563-5.34-11.902-11.903-11.902H24.807v-51.033h243.396c6.563 0 11.903-5.34 11.903-11.903V153.839h51.032v208.742c0 6.563 5.34 11.903 11.903 11.903h432.151v51.033H683.87c-6.563 0-11.903 5.339-11.903 11.902v1H644.16v-1c0-6.563-5.34-11.902-11.903-11.902H343.042c-6.563 0-11.903 5.339-11.903 11.902v208.742h-51.033z"/>
  <path fill="#FFE000" d="M683.871 424.517h90.322v-49.033H343.042c-7.128 0-12.903-5.777-12.903-12.903V154.839h-49.032v207.742c0 7.126-5.776 12.903-12.903 12.903H25.807v49.033h242.396c7.127 0 12.903 5.776 12.903 12.902v207.742h49.032V437.419c0-7.126 5.775-12.902 12.903-12.902h289.216c7.128 0 12.903 5.776 12.903 12.902h25.807c.001-7.126 5.776-12.902 12.904-12.902z"/>
  <path d="M787.097 129.032H12.903C5.775 129.032 0 134.81 0 141.936v516.129c0 7.126 5.775 12.903 12.903 12.903h774.193c7.128 0 12.903-5.777 12.903-12.903V141.936c.001-7.126-5.774-12.904-12.902-12.904zM255.3 349.677H25.807V154.839H255.3v194.838zM25.807 450.322H255.3v194.839H25.807V450.322zm330.138 194.839V450.322h276.313c7.128 0 12.903-5.777 12.903-12.903s-5.775-12.902-12.903-12.902H343.042c-7.128 0-12.903 5.776-12.903 12.902v207.742h-49.032V437.419c0-7.126-5.776-12.902-12.903-12.902H25.807v-49.033h242.396c7.127 0 12.903-5.777 12.903-12.903V154.839h49.032v207.742c0 7.126 5.775 12.903 12.903 12.903h431.151v49.033H683.87c-7.128 0-12.903 5.776-12.903 12.902s5.775 12.903 12.903 12.903h90.322v194.839H355.945zm418.248-295.484H355.945V154.839h418.248v194.838z"/>
</svg>
