<?xml version="1.0" encoding="utf-8"?>
<!-- Generator: Adobe Illustrator 16.0.0, SVG Export Plug-In . SVG Version: 6.00 Build 0)  -->
<!DOCTYPE svg PUBLIC "-//W3C//DTD SVG 1.1//EN" "http://www.w3.org/Graphics/SVG/1.1/DTD/svg11.dtd">
<svg version="1.1" id="Capa_1" xmlns="http://www.w3.org/2000/svg" xmlns:xlink="http://www.w3.org/1999/xlink" x="0px" y="0px"
	 width="800px" height="800px" viewBox="0 0 800 800" enable-background="new 0 0 800 800" xml:space="preserve">
<g>
	<rect x="24.807" y="153.839" fill="#164FCE" width="231.493" height="196.838"/>
	<rect x="25.807" y="154.839" fill="#164FCE" width="229.493" height="194.838"/>
	<rect x="24.807" y="449.322" fill="#164FCE" width="231.493" height="196.839"/>
	<rect x="25.807" y="450.322" fill="#164FCE" width="229.493" height="194.839"/>
	<rect x="354.945" y="153.839" fill="#164FCE" width="420.248" height="196.838"/>
	<rect x="355.945" y="154.839" fill="#164FCE" width="418.248" height="194.838"/>
	<path fill="#164FCE" d="M354.945,646.161V449.322h277.313c6.563,0,11.903-5.34,11.903-11.903v-1h27.807v1
		c0,6.563,5.34,11.903,11.903,11.903h91.322v196.839H354.945z"/>
	<path fill="#164FCE" d="M683.871,450.322c-7.128,0-12.903-5.777-12.903-12.903h-25.807c0,7.126-5.775,12.903-12.903,12.903H355.945
		v194.839h418.248V450.322H683.871z"/>
	<path fill="#FFE000" d="M280.106,646.161V437.419c0-6.563-5.34-11.902-11.903-11.902H24.807v-51.033h243.396
		c6.563,0,11.903-5.34,11.903-11.903V153.839h51.032v208.742c0,6.563,5.34,11.903,11.903,11.903h432.151v51.033h-91.322
		c-6.563,0-11.903,5.339-11.903,11.902v1h-27.807v-1c0-6.563-5.34-11.902-11.903-11.902H343.042
		c-6.563,0-11.903,5.339-11.903,11.902v208.742H280.106z"/>
	<path fill="#FFE000" d="M683.871,424.517h90.322v-49.033H343.042c-7.128,0-12.903-5.777-12.903-12.903V154.839h-49.032v207.742
		c0,7.126-5.776,12.903-12.903,12.903H25.807v49.033h242.396c7.127,0,12.903,5.776,12.903,12.902v207.742h49.032V437.419
		c0-7.126,5.775-12.902,12.903-12.902h289.216c7.128,0,12.903,5.776,12.903,12.902h25.807
		C670.968,430.293,676.743,424.517,683.871,424.517z"/>
	<path d="M787.097,129.032H12.903C5.775,129.032,0,134.81,0,141.936v516.129c0,7.126,5.775,12.903,12.903,12.903h774.193
		c7.128,0,12.903-5.777,12.903-12.903V141.936C800,134.81,794.225,129.032,787.097,129.032z M255.3,349.677H25.807V154.839H255.3
		V349.677z M25.807,450.322H255.3v194.839H25.807V450.322z M355.945,645.161V450.322h276.313c7.128,0,12.903-5.777,12.903-12.903
		s-5.775-12.902-12.903-12.902H343.042c-7.128,0-12.903,5.776-12.903,12.902v207.742h-49.032V437.419
		c0-7.126-5.776-12.902-12.903-12.902H25.807v-49.033h242.396c7.127,0,12.903-5.777,12.903-12.903V154.839h49.032v207.742
		c0,7.126,5.775,12.903,12.903,12.903h431.151v49.033h-90.322c-7.128,0-12.903,5.776-12.903,12.902s5.775,12.903,12.903,12.903
		h90.322v194.839H355.945z M774.193,349.677H355.945V154.839h418.248V349.677z"/>
</g>
</svg>
