<svg xmlns="http://www.w3.org/2000/svg" width="800" height="800">
  <path fill="#FFF" d="M412.37 326.882h-46.486v31.535h408.31v-31.535H463.982c-7.126 0-12.902-5.775-12.902-12.903h-25.807c0 7.127-5.777 12.903-12.903 12.903zM645.161 543.363c0 7.128-5.777 12.903-12.903 12.903H25.807v31.553h748.387v-31.553h-90.322c-7.126 0-12.903-5.775-12.903-12.903h-25.808zM25.807 441.583h748.387v31.535H25.807zM365.884 212.181h408.31v31.553h-408.31z"/>
  <path fill="#ED1F34" d="M24.807 612.626h750.387v33.535H24.807z"/>
  <path fill="#ED1F34" d="M25.807 613.626h748.387v31.535H25.807zM644.161 544.363v-1c0-6.563-5.34-11.903-11.903-11.903H24.807v-33.535h750.387v33.535h-91.322c-6.563 0-11.903 5.34-11.903 11.903v1h-27.808z"/>
  <path fill="#ED1F34" d="M25.807 498.925v31.535h606.451c7.126 0 12.903 5.775 12.903 12.903h25.807c0-7.128 5.777-12.903 12.903-12.903h90.322v-31.535H25.807zM364.884 383.224h410.31v33.553h-410.31z"/>
  <path fill="#ED1F34" d="M365.884 384.224h408.31v31.553h-408.31zM424.273 314.979v-1c0-6.563-5.34-11.903-11.903-11.903h-47.486V268.54h410.31v33.535H463.982c-6.563 0-11.902 5.34-11.902 11.903v1h-27.807z"/>
  <path fill="#ED1F34" d="M365.884 269.54v31.535h46.486c7.126 0 12.903 5.775 12.903 12.903h25.807c0-7.128 5.776-12.903 12.902-12.903h310.211V269.54H365.884zM364.884 153.839h410.31v33.535h-410.31z"/>
  <path fill="#ED1F34" d="M365.884 154.839h408.31v31.535h-408.31z"/>
  <path fill="#164FCE" d="M24.807 416.776V153.839h316.271v262.938H24.807zm286.032-40.662c-4.571 0-8.29 3.719-8.29 8.291s3.719 8.291 8.29 8.291 8.29-3.719 8.29-8.291-3.719-8.291-8.29-8.291zm-51.159 0c-4.571 0-8.291 3.719-8.291 8.291s3.719 8.291 8.291 8.291 8.29-3.719 8.29-8.291-3.719-8.291-8.29-8.291zm-51.159 0c-4.571 0-8.291 3.719-8.291 8.291s3.719 8.291 8.291 8.291 8.29-3.719 8.29-8.291-3.718-8.291-8.29-8.291zm-51.158 0c-4.571 0-8.291 3.719-8.291 8.291s3.719 8.291 8.291 8.291 8.29-3.719 8.29-8.291-3.719-8.291-8.29-8.291zm-51.159 0c-4.571 0-8.291 3.719-8.291 8.291s3.719 8.291 8.291 8.291 8.29-3.719 8.29-8.291-3.719-8.291-8.29-8.291zm-51.159 0c-4.571 0-8.29 3.719-8.29 8.291s3.719 8.291 8.29 8.291 8.291-3.719 8.291-8.291-3.72-8.291-8.291-8.291zm230.214-24.774c-4.571 0-8.29 3.719-8.29 8.29s3.719 8.291 8.29 8.291 8.291-3.719 8.291-8.291-3.719-8.29-8.291-8.29zm-51.158 0c-4.571 0-8.29 3.719-8.29 8.29s3.719 8.291 8.29 8.291 8.291-3.719 8.291-8.291-3.72-8.29-8.291-8.29zm-51.159 0c-4.571 0-8.291 3.719-8.291 8.29s3.719 8.291 8.291 8.291 8.291-3.719 8.291-8.291-3.72-8.29-8.291-8.29zm-51.159 0c-4.571 0-8.291 3.719-8.291 8.29s3.719 8.291 8.291 8.291 8.291-3.719 8.291-8.291-3.72-8.29-8.291-8.29zm-51.158 0c-4.571 0-8.291 3.719-8.291 8.29s3.719 8.291 8.291 8.291 8.291-3.719 8.291-8.291-3.72-8.29-8.291-8.29zm230.214-24.775c-4.571 0-8.29 3.718-8.29 8.289s3.719 8.291 8.29 8.291 8.29-3.719 8.29-8.291c0-4.57-3.719-8.289-8.29-8.289zm-51.159 0c-4.571 0-8.291 3.718-8.291 8.289s3.719 8.291 8.291 8.291 8.29-3.719 8.29-8.291c0-4.57-3.719-8.289-8.29-8.289zm-51.159 0c-4.571 0-8.291 3.718-8.291 8.289s3.719 8.291 8.291 8.291 8.29-3.719 8.29-8.291c.001-4.57-3.718-8.289-8.29-8.289zm-51.158 0c-4.571 0-8.291 3.718-8.291 8.289s3.719 8.291 8.291 8.291 8.29-3.719 8.29-8.291c0-4.57-3.719-8.289-8.29-8.289zm-51.159 0c-4.571 0-8.291 3.718-8.291 8.289s3.719 8.291 8.291 8.291 8.29-3.719 8.29-8.291c0-4.57-3.719-8.289-8.29-8.289zm-51.159 0c-4.571 0-8.29 3.718-8.29 8.289s3.719 8.291 8.29 8.291 8.291-3.719 8.291-8.291c-.001-4.57-3.72-8.289-8.291-8.289zm230.214-24.773c-4.571 0-8.29 3.719-8.29 8.29s3.719 8.291 8.29 8.291 8.291-3.719 8.291-8.291-3.719-8.29-8.291-8.29zm-51.158 0c-4.571 0-8.29 3.719-8.29 8.29s3.719 8.291 8.29 8.291 8.291-3.719 8.291-8.291-3.72-8.29-8.291-8.29zm-51.159 0c-4.571 0-8.291 3.719-8.291 8.29s3.719 8.291 8.291 8.291 8.291-3.719 8.291-8.291-3.72-8.29-8.291-8.29zm-51.159 0c-4.571 0-8.291 3.719-8.291 8.29s3.719 8.291 8.291 8.291 8.291-3.719 8.291-8.291-3.72-8.29-8.291-8.29zm-51.158 0c-4.571 0-8.291 3.719-8.291 8.29s3.719 8.291 8.291 8.291 8.291-3.719 8.291-8.291-3.72-8.29-8.291-8.29zm230.214-24.775c-4.571 0-8.29 3.719-8.29 8.291s3.719 8.29 8.29 8.29 8.29-3.719 8.29-8.29-3.719-8.291-8.29-8.291zm-51.159 0c-4.571 0-8.291 3.719-8.291 8.291s3.719 8.29 8.291 8.29 8.29-3.719 8.29-8.29-3.719-8.291-8.29-8.291zm-51.159 0c-4.571 0-8.291 3.719-8.291 8.291s3.719 8.29 8.291 8.29 8.29-3.719 8.29-8.29-3.718-8.291-8.29-8.291zm-51.158 0c-4.571 0-8.291 3.719-8.291 8.291s3.719 8.29 8.291 8.29 8.29-3.719 8.29-8.29-3.719-8.291-8.29-8.291zm-51.159 0c-4.571 0-8.291 3.719-8.291 8.291s3.719 8.29 8.291 8.29 8.29-3.719 8.29-8.29-3.719-8.291-8.29-8.291zm-51.159 0c-4.571 0-8.29 3.719-8.29 8.291s3.719 8.29 8.29 8.29 8.291-3.719 8.291-8.29-3.72-8.291-8.291-8.291zm230.214-24.774c-4.571 0-8.29 3.719-8.29 8.29s3.719 8.291 8.29 8.291 8.291-3.719 8.291-8.291-3.719-8.29-8.291-8.29zm-51.158 0c-4.571 0-8.29 3.719-8.29 8.29s3.719 8.291 8.29 8.291 8.291-3.719 8.291-8.291-3.72-8.29-8.291-8.29zm-51.159 0c-4.571 0-8.291 3.719-8.291 8.29s3.719 8.291 8.291 8.291 8.291-3.719 8.291-8.291-3.72-8.29-8.291-8.29zm-51.159 0c-4.571 0-8.291 3.719-8.291 8.29s3.719 8.291 8.291 8.291 8.291-3.719 8.291-8.291-3.72-8.29-8.291-8.29zm-51.158 0c-4.571 0-8.291 3.719-8.291 8.29s3.719 8.291 8.291 8.291 8.291-3.719 8.291-8.291-3.72-8.29-8.291-8.29zm230.214-24.774c-4.571 0-8.29 3.719-8.29 8.291s3.719 8.29 8.29 8.29 8.29-3.719 8.29-8.29-3.719-8.291-8.29-8.291zm-51.159 0c-4.571 0-8.291 3.719-8.291 8.291s3.719 8.29 8.291 8.29 8.29-3.719 8.29-8.29-3.719-8.291-8.29-8.291zm-51.159 0c-4.571 0-8.291 3.719-8.291 8.291s3.719 8.29 8.291 8.29 8.29-3.719 8.29-8.29-3.718-8.291-8.29-8.291zm-51.158 0c-4.571 0-8.291 3.719-8.291 8.291s3.719 8.29 8.291 8.29 8.29-3.719 8.29-8.29-3.719-8.291-8.29-8.291zm-51.159 0c-4.571 0-8.291 3.719-8.291 8.291s3.719 8.29 8.291 8.29 8.29-3.719 8.29-8.29-3.719-8.291-8.29-8.291zm-51.159 0c-4.571 0-8.29 3.719-8.29 8.291s3.719 8.29 8.29 8.29 8.291-3.719 8.291-8.29-3.72-8.291-8.291-8.291zm230.214-24.774c-4.571 0-8.29 3.719-8.29 8.29s3.719 8.291 8.29 8.291 8.291-3.719 8.291-8.291-3.719-8.29-8.291-8.29zm-51.158 0c-4.571 0-8.29 3.719-8.29 8.29s3.719 8.291 8.29 8.291 8.291-3.719 8.291-8.291-3.72-8.29-8.291-8.29zm-51.159 0c-4.571 0-8.291 3.719-8.291 8.29s3.719 8.291 8.291 8.291 8.291-3.719 8.291-8.291-3.72-8.29-8.291-8.29zm-51.159 0c-4.571 0-8.291 3.719-8.291 8.29s3.719 8.291 8.291 8.291 8.291-3.719 8.291-8.291-3.72-8.29-8.291-8.29zm-51.158 0c-4.571 0-8.291 3.719-8.291 8.29s3.719 8.291 8.291 8.291 8.291-3.719 8.291-8.291-3.72-8.29-8.291-8.29zm230.214-24.775c-4.571 0-8.29 3.719-8.29 8.291s3.719 8.29 8.29 8.29 8.29-3.719 8.29-8.29-3.719-8.291-8.29-8.291zm-51.159 0c-4.571 0-8.291 3.719-8.291 8.291s3.719 8.29 8.291 8.29 8.29-3.719 8.29-8.29-3.719-8.291-8.29-8.291zm-51.159 0c-4.571 0-8.291 3.719-8.291 8.291s3.719 8.29 8.291 8.29 8.29-3.719 8.29-8.29-3.718-8.291-8.29-8.291zm-51.158 0c-4.571 0-8.291 3.719-8.291 8.291s3.719 8.29 8.291 8.29 8.29-3.719 8.29-8.29-3.719-8.291-8.29-8.291zm-51.159 0c-4.571 0-8.291 3.719-8.291 8.291s3.719 8.29 8.291 8.29 8.29-3.719 8.29-8.29-3.719-8.291-8.29-8.291zm-51.159 0c-4.571 0-8.29 3.719-8.29 8.291s3.719 8.29 8.29 8.29 8.291-3.719 8.291-8.29-3.72-8.291-8.291-8.291z"/>
  <path fill="#164FCE" d="M25.807 415.776h314.271V154.839H25.807v260.937zM310.839 176.92c5.13 0 9.29 4.158 9.29 9.291 0 5.13-4.16 9.29-9.29 9.29-5.131 0-9.29-4.16-9.29-9.29 0-5.132 4.158-9.291 9.29-9.291zm0 49.549c5.13 0 9.29 4.16 9.29 9.291s-4.16 9.29-9.29 9.29c-5.131 0-9.29-4.158-9.29-9.29 0-5.131 4.158-9.291 9.29-9.291zm0 49.548c5.13 0 9.29 4.159 9.29 9.291s-4.16 9.29-9.29 9.29c-5.131 0-9.29-4.158-9.29-9.29s4.158-9.291 9.29-9.291zm0 49.548c5.13 0 9.29 4.158 9.29 9.289s-4.16 9.291-9.29 9.291c-5.131 0-9.29-4.158-9.29-9.291 0-5.128 4.158-9.289 9.29-9.289zm0 49.549c5.13 0 9.29 4.159 9.29 9.291s-4.16 9.291-9.29 9.291c-5.131 0-9.29-4.159-9.29-9.291s4.158-9.291 9.29-9.291zm-25.58-173.419c5.13 0 9.291 4.158 9.291 9.29 0 5.132-4.16 9.291-9.291 9.291s-9.29-4.158-9.29-9.291c0-5.132 4.158-9.29 9.29-9.29zm0 49.548c5.13 0 9.291 4.158 9.291 9.29 0 5.13-4.16 9.291-9.291 9.291s-9.29-4.16-9.29-9.291 4.158-9.29 9.29-9.29zm0 49.549c5.13 0 9.291 4.16 9.291 9.29s-4.16 9.291-9.291 9.291-9.29-4.158-9.29-9.291c0-5.131 4.158-9.29 9.29-9.29zm0 49.548c5.13 0 9.291 4.158 9.291 9.29 0 5.132-4.16 9.291-9.291 9.291s-9.29-4.158-9.29-9.291c0-5.132 4.158-9.29 9.29-9.29zM259.68 176.92c5.13 0 9.29 4.158 9.29 9.291 0 5.13-4.16 9.29-9.29 9.29s-9.291-4.16-9.291-9.29c.001-5.132 4.161-9.291 9.291-9.291zm0 49.549c5.13 0 9.29 4.16 9.29 9.291s-4.16 9.29-9.29 9.29-9.291-4.158-9.291-9.29c.001-5.131 4.161-9.291 9.291-9.291zm0 49.548c5.13 0 9.29 4.159 9.29 9.291s-4.16 9.29-9.29 9.29-9.291-4.158-9.291-9.29 4.161-9.291 9.291-9.291zm0 49.548c5.13 0 9.29 4.158 9.29 9.289s-4.16 9.291-9.29 9.291-9.291-4.158-9.291-9.291c.001-5.128 4.161-9.289 9.291-9.289zm0 49.549c5.13 0 9.29 4.159 9.29 9.291s-4.16 9.291-9.29 9.291-9.291-4.159-9.291-9.291 4.161-9.291 9.291-9.291zm-25.579-173.419c5.13 0 9.291 4.158 9.291 9.29 0 5.132-4.16 9.291-9.291 9.291s-9.29-4.158-9.29-9.291c0-5.132 4.159-9.29 9.29-9.29zm0 49.548c5.13 0 9.291 4.158 9.291 9.29 0 5.13-4.16 9.291-9.291 9.291s-9.29-4.16-9.29-9.291 4.159-9.29 9.29-9.29zm0 49.549c5.13 0 9.291 4.16 9.291 9.29s-4.16 9.291-9.291 9.291-9.29-4.158-9.29-9.291c0-5.131 4.159-9.29 9.29-9.29zm0 49.548c5.13 0 9.291 4.158 9.291 9.29 0 5.132-4.16 9.291-9.291 9.291s-9.29-4.158-9.29-9.291c0-5.132 4.159-9.29 9.29-9.29zm-25.58-173.42c5.13 0 9.29 4.158 9.29 9.291 0 5.13-4.16 9.29-9.29 9.29-5.13 0-9.291-4.16-9.291-9.29.001-5.132 4.161-9.291 9.291-9.291zm0 49.549c5.13 0 9.29 4.16 9.29 9.291s-4.16 9.29-9.29 9.29c-5.13 0-9.291-4.158-9.291-9.29.001-5.131 4.161-9.291 9.291-9.291zm0 49.548c5.13 0 9.29 4.159 9.29 9.291s-4.16 9.29-9.29 9.29c-5.13 0-9.291-4.158-9.291-9.29s4.161-9.291 9.291-9.291zm0 49.548c5.13 0 9.29 4.158 9.29 9.289s-4.16 9.291-9.29 9.291c-5.13 0-9.291-4.158-9.291-9.291.001-5.128 4.161-9.289 9.291-9.289zm0 49.549c5.13 0 9.29 4.159 9.29 9.291s-4.16 9.291-9.29 9.291c-5.13 0-9.291-4.159-9.291-9.291s4.161-9.291 9.291-9.291zm-25.579-173.419c5.13 0 9.291 4.158 9.291 9.29 0 5.132-4.16 9.291-9.291 9.291s-9.291-4.158-9.291-9.291c0-5.132 4.161-9.29 9.291-9.29zm0 49.548c5.13 0 9.291 4.158 9.291 9.29 0 5.13-4.16 9.291-9.291 9.291s-9.291-4.16-9.291-9.291 4.161-9.29 9.291-9.29zm0 49.549c5.13 0 9.291 4.16 9.291 9.29s-4.16 9.291-9.291 9.291-9.291-4.158-9.291-9.291c0-5.131 4.161-9.29 9.291-9.29zm0 49.548c5.13 0 9.291 4.158 9.291 9.29 0 5.132-4.16 9.291-9.291 9.291s-9.291-4.158-9.291-9.291c0-5.132 4.161-9.29 9.291-9.29zm-25.579-173.42c5.13 0 9.29 4.158 9.29 9.291 0 5.13-4.16 9.29-9.29 9.29s-9.291-4.16-9.291-9.29c0-5.132 4.16-9.291 9.291-9.291zm0 49.549c5.13 0 9.29 4.16 9.29 9.291s-4.16 9.29-9.29 9.29-9.291-4.158-9.291-9.29c0-5.131 4.16-9.291 9.291-9.291zm0 49.548c5.13 0 9.29 4.159 9.29 9.291s-4.16 9.29-9.29 9.29-9.291-4.158-9.291-9.29 4.16-9.291 9.291-9.291zm0 49.548c5.13 0 9.29 4.158 9.29 9.289s-4.16 9.291-9.29 9.291-9.291-4.158-9.291-9.291c0-5.128 4.16-9.289 9.291-9.289zm0 49.549c5.13 0 9.29 4.159 9.29 9.291s-4.16 9.291-9.29 9.291-9.291-4.159-9.291-9.291 4.16-9.291 9.291-9.291zm-25.58-173.419c5.13 0 9.291 4.158 9.291 9.29 0 5.132-4.16 9.291-9.291 9.291s-9.291-4.158-9.291-9.291c.001-5.132 4.161-9.29 9.291-9.29zm0 49.548c5.13 0 9.291 4.158 9.291 9.29 0 5.13-4.16 9.291-9.291 9.291s-9.291-4.16-9.291-9.291 4.161-9.29 9.291-9.29zm0 49.549c5.13 0 9.291 4.16 9.291 9.29s-4.16 9.291-9.291 9.291-9.291-4.158-9.291-9.291c.001-5.131 4.161-9.29 9.291-9.29zm0 49.548c5.13 0 9.291 4.158 9.291 9.29 0 5.132-4.16 9.291-9.291 9.291s-9.291-4.158-9.291-9.291c.001-5.132 4.161-9.29 9.291-9.29zm-25.579-173.42c5.13 0 9.29 4.158 9.29 9.291 0 5.13-4.16 9.29-9.29 9.29-5.13 0-9.291-4.16-9.291-9.29.001-5.132 4.161-9.291 9.291-9.291zm0 49.549c5.13 0 9.29 4.16 9.29 9.291s-4.16 9.29-9.29 9.29c-5.13 0-9.291-4.158-9.291-9.29.001-5.131 4.161-9.291 9.291-9.291zm0 49.548c5.13 0 9.29 4.159 9.29 9.291s-4.16 9.29-9.29 9.29c-5.13 0-9.291-4.158-9.291-9.29s4.161-9.291 9.291-9.291zm0 49.548c5.13 0 9.29 4.158 9.29 9.289s-4.16 9.291-9.29 9.291c-5.13 0-9.291-4.158-9.291-9.291.001-5.128 4.161-9.289 9.291-9.289zm0 49.549c5.13 0 9.29 4.159 9.29 9.291s-4.16 9.291-9.29 9.291c-5.13 0-9.291-4.159-9.291-9.291s4.161-9.291 9.291-9.291zM80.625 201.695c5.13 0 9.291 4.158 9.291 9.29 0 5.132-4.16 9.291-9.291 9.291s-9.291-4.158-9.291-9.291c0-5.132 4.16-9.29 9.291-9.29zm0 49.548c5.13 0 9.291 4.158 9.291 9.29 0 5.13-4.16 9.291-9.291 9.291s-9.291-4.16-9.291-9.291 4.16-9.29 9.291-9.29zm0 49.549c5.13 0 9.291 4.16 9.291 9.29s-4.16 9.291-9.291 9.291-9.291-4.158-9.291-9.291c0-5.131 4.16-9.29 9.291-9.29zm0 49.548c5.13 0 9.291 4.158 9.291 9.29 0 5.132-4.16 9.291-9.291 9.291s-9.291-4.158-9.291-9.291c0-5.132 4.16-9.29 9.291-9.29zm-25.58-173.42c5.13 0 9.291 4.158 9.291 9.291 0 5.13-4.16 9.29-9.291 9.29-5.13 0-9.29-4.16-9.29-9.29 0-5.132 4.16-9.291 9.29-9.291zm0 49.549c5.13 0 9.291 4.16 9.291 9.291s-4.16 9.29-9.291 9.29c-5.13 0-9.29-4.158-9.29-9.29 0-5.131 4.16-9.291 9.29-9.291zm0 49.548c5.13 0 9.291 4.159 9.291 9.291s-4.16 9.29-9.291 9.29c-5.13 0-9.29-4.158-9.29-9.29s4.16-9.291 9.29-9.291zm0 49.548c5.13 0 9.291 4.158 9.291 9.289s-4.16 9.291-9.291 9.291c-5.13 0-9.29-4.158-9.29-9.291 0-5.128 4.16-9.289 9.29-9.289zm0 49.549c5.13 0 9.291 4.159 9.291 9.291s-4.16 9.291-9.291 9.291c-5.13 0-9.29-4.159-9.29-9.291s4.16-9.291 9.29-9.291z"/>
  <path d="M787.097 129.032H12.903C5.777 129.032 0 134.808 0 141.936v516.129c0 7.128 5.777 12.903 12.903 12.903h774.193c7.126 0 12.903-5.775 12.903-12.903V141.936c.001-7.128-5.776-12.904-12.902-12.904zM463.982 301.075c-7.126 0-12.902 5.775-12.902 12.903s5.776 12.903 12.902 12.903h310.211v31.535h-408.31v-31.535h46.486c7.126 0 12.903-5.775 12.903-12.903s-5.777-12.903-12.903-12.903h-46.486V269.54h408.31v31.535H463.982zM683.871 530.46c-7.126 0-12.903 5.775-12.903 12.903s5.777 12.903 12.903 12.903h90.322v31.553H25.807v-31.553h606.451c7.126 0 12.903-5.775 12.903-12.903s-5.777-12.903-12.903-12.903H25.807v-31.535h748.387v31.535h-90.323zM25.807 473.118v-31.535h748.387v31.535H25.807zm340.077-57.342v-31.553h408.31v31.553h-408.31zm0-172.043V212.18h408.31v31.553h-408.31zm408.309-57.359h-408.31v-31.535h408.31v31.535zM340.077 415.776H25.807V154.839h314.271v260.937zM25.807 645.161v-31.535h748.387v31.535H25.807z"/>
  <circle cx="80.625" cy="359.63" r="9.29" fill="#FFF"/>
  <circle cx="131.783" cy="359.63" r="9.29" fill="#FFF"/>
  <circle cx="182.942" cy="359.63" r="9.29" fill="#FFF"/>
  <circle cx="234.101" cy="359.63" r="9.29" fill="#FFF"/>
  <circle cx="285.259" cy="359.63" r="9.29" fill="#FFF"/>
  <circle cx="55.045" cy="384.404" r="9.291" fill="#FFF"/>
  <circle cx="106.204" cy="384.404" r="9.291" fill="#FFF"/>
  <circle cx="157.363" cy="384.404" r="9.291" fill="#FFF"/>
  <circle cx="208.521" cy="384.404" r="9.291" fill="#FFF"/>
  <circle cx="259.68" cy="384.404" r="9.291" fill="#FFF"/>
  <circle cx="310.839" cy="384.404" r="9.291" fill="#FFF"/>
  <circle cx="55.045" cy="334.856" r="9.29" fill="#FFF"/>
  <circle cx="106.204" cy="334.856" r="9.29" fill="#FFF"/>
  <circle cx="157.363" cy="334.856" r="9.29" fill="#FFF"/>
  <circle cx="208.521" cy="334.856" r="9.29" fill="#FFF"/>
  <circle cx="259.68" cy="334.856" r="9.29" fill="#FFF"/>
  <circle cx="310.839" cy="334.856" r="9.29" fill="#FFF"/>
  <circle cx="80.625" cy="310.082" r="9.29" fill="#FFF"/>
  <circle cx="131.783" cy="310.082" r="9.29" fill="#FFF"/>
  <circle cx="182.942" cy="310.082" r="9.29" fill="#FFF"/>
  <circle cx="234.101" cy="310.082" r="9.29" fill="#FFF"/>
  <circle cx="285.259" cy="310.082" r="9.29" fill="#FFF"/>
  <circle cx="55.045" cy="285.307" r="9.29" fill="#FFF"/>
  <circle cx="106.204" cy="285.307" r="9.29" fill="#FFF"/>
  <circle cx="157.363" cy="285.307" r="9.29" fill="#FFF"/>
  <circle cx="208.521" cy="285.307" r="9.29" fill="#FFF"/>
  <circle cx="259.68" cy="285.307" r="9.29" fill="#FFF"/>
  <circle cx="310.839" cy="285.307" r="9.29" fill="#FFF"/>
  <circle cx="80.625" cy="260.533" r="9.29" fill="#FFF"/>
  <circle cx="131.783" cy="260.533" r="9.29" fill="#FFF"/>
  <circle cx="182.942" cy="260.533" r="9.29" fill="#FFF"/>
  <circle cx="234.101" cy="260.533" r="9.29" fill="#FFF"/>
  <circle cx="285.259" cy="260.533" r="9.29" fill="#FFF"/>
  <circle cx="55.045" cy="235.759" r="9.29" fill="#FFF"/>
  <circle cx="106.204" cy="235.759" r="9.29" fill="#FFF"/>
  <circle cx="157.363" cy="235.759" r="9.29" fill="#FFF"/>
  <circle cx="208.521" cy="235.759" r="9.29" fill="#FFF"/>
  <circle cx="259.68" cy="235.759" r="9.29" fill="#FFF"/>
  <circle cx="310.839" cy="235.759" r="9.29" fill="#FFF"/>
  <circle cx="80.625" cy="210.985" r="9.29" fill="#FFF"/>
  <circle cx="131.783" cy="210.985" r="9.29" fill="#FFF"/>
  <circle cx="182.942" cy="210.985" r="9.29" fill="#FFF"/>
  <circle cx="234.101" cy="210.985" r="9.29" fill="#FFF"/>
  <circle cx="285.259" cy="210.985" r="9.29" fill="#FFF"/>
  <circle cx="55.045" cy="186.211" r="9.29" fill="#FFF"/>
  <circle cx="106.204" cy="186.211" r="9.29" fill="#FFF"/>
  <circle cx="157.363" cy="186.211" r="9.29" fill="#FFF"/>
  <circle cx="208.521" cy="186.211" r="9.29" fill="#FFF"/>
  <circle cx="259.68" cy="186.211" r="9.29" fill="#FFF"/>
  <circle cx="310.839" cy="186.211" r="9.29" fill="#FFF"/>
</svg>
